<svg width="278" height="196" viewBox="0 0 278 196" fill="none" xmlns="http://www.w3.org/2000/svg">
<path d="M117.641 50.9555L165.996 29.6701L144.71 78.0247L144.5 78.5028L144.987 78.6921L194.23 97.8329L144.987 116.974L144.5 117.163L144.71 117.641L165.996 165.996L117.641 144.71L117.163 144.5L116.974 144.987L97.833 194.23L78.6922 144.987L78.5029 144.5L78.0247 144.71L29.6701 165.996L50.9555 117.641L51.166 117.163L50.679 116.974L1.43611 97.8329L50.679 78.6921L51.166 78.5028L50.9555 78.0247L29.6701 29.6701L78.0247 50.9555L78.5029 51.166L78.6922 50.679L97.833 1.4361L116.974 50.679L117.163 51.166L117.641 50.9555Z" stroke="url(#paint0_linear_57_99)"/>
<path d="M266.385 120.256C263.953 120.256 261.628 119.701 259.409 118.592C257.191 117.44 255.377 115.712 253.969 113.408C252.561 111.104 251.857 108.203 251.857 104.704C251.857 100.949 252.561 97.8987 253.969 95.552C255.42 93.1627 257.233 91.4133 259.409 90.304C261.628 89.152 263.868 88.576 266.129 88.576C267.921 88.576 269.649 88.896 271.313 89.536C272.977 90.1333 274.343 91.0933 275.409 92.416C276.519 93.696 277.073 95.3387 277.073 97.344C277.073 99.136 276.689 100.672 275.921 101.952C275.196 103.232 274.172 104.277 272.849 105.088C271.569 105.899 270.097 106.496 268.433 106.88C266.769 107.264 265.02 107.435 263.185 107.392L259.921 107.328C260.177 109.248 260.881 110.869 262.033 112.192C263.185 113.515 265.063 114.176 267.665 114.176C269.628 114.176 271.207 113.813 272.401 113.088C273.596 112.32 274.577 111.573 275.345 110.848L276.817 116.416C276.433 116.928 275.751 117.483 274.769 118.08C273.788 118.677 272.572 119.189 271.121 119.616C269.713 120.043 268.135 120.256 266.385 120.256ZM259.985 101.952L262.097 102.016C262.908 102.059 263.719 102.016 264.529 101.888C265.383 101.717 266.151 101.461 266.833 101.12C267.559 100.779 268.135 100.331 268.561 99.776C268.988 99.1787 269.201 98.4533 269.201 97.6C269.201 96.6187 268.924 95.8933 268.369 95.424C267.815 94.912 267.111 94.656 266.257 94.656C265.233 94.656 264.252 94.9973 263.313 95.68C262.417 96.32 261.671 97.1947 261.073 98.304C260.476 99.4133 260.113 100.629 259.985 101.952Z" fill="#00A775"/>
<path d="M196.889 120L196.505 114.432L200.281 113.92V82.176L196.761 81.792V75.776H213.209L222.425 108.608L231.705 75.776H247.001L247.961 81.728L244.441 82.496V113.984L247.705 114.432V120H234.137L233.561 114.24L236.377 113.408V81.792L225.689 119.168H217.113L206.681 82.24V113.728L209.625 114.432L209.689 120H196.889Z" fill="#00A775"/>
<path d="M163.302 120L162.534 115.904L166.182 115.072V78.528H162.854L162.214 74.176L171.686 72.832L173.926 75.2V102.592L182.118 93.568H178.726L178.086 88.576H189.414L191.654 92.736L182.758 101.632L189.606 115.328L192.614 116.032L192.678 120H183.014L177.062 107.328L173.926 110.464V115.2L176.934 115.904L176.87 120H163.302Z" fill="black"/>
<path d="M149.436 120.256C147.815 120.256 146.172 119.979 144.508 119.424C142.844 118.827 141.329 117.909 139.964 116.672C138.599 115.435 137.489 113.877 136.636 112C135.825 110.08 135.42 107.776 135.42 105.088C135.42 101.888 135.847 99.2213 136.7 97.088C137.553 94.9547 138.663 93.2693 140.028 92.032C141.393 90.7947 142.887 89.92 144.508 89.408C146.172 88.8533 147.793 88.576 149.372 88.576C151.249 88.576 152.828 88.832 154.108 89.344C155.431 89.8133 156.497 90.3893 157.308 91.072C158.161 91.7547 158.801 92.416 159.228 93.056C159.655 93.6533 159.932 94.0587 160.06 94.272L152.316 98.432L149.564 94.592H149.052C148.241 94.592 147.473 94.848 146.748 95.36C146.065 95.8293 145.468 96.5333 144.956 97.472C144.444 98.368 144.039 99.4347 143.74 100.672C143.484 101.909 143.356 103.275 143.356 104.768C143.356 106.432 143.612 107.989 144.124 109.44C144.636 110.848 145.425 112 146.492 112.896C147.601 113.749 149.031 114.176 150.78 114.176C152.017 114.176 153.105 113.984 154.044 113.6C154.983 113.216 155.772 112.789 156.412 112.32C157.095 111.808 157.607 111.403 157.948 111.104L159.612 116.672C158.46 117.867 156.988 118.763 155.196 119.36C153.404 119.957 151.484 120.256 149.436 120.256Z" fill="black"/>
<path d="M118.189 120L117.485 115.904L121.069 115.072V94.528H117.805L117.101 90.176L126.637 88.512L128.813 90.816V115.2L132.333 115.904V120H118.189ZM124.781 85.952C123.672 85.952 122.733 85.568 121.965 84.8C121.197 83.9893 120.813 83.0507 120.813 81.984C120.813 80.8747 121.197 79.936 121.965 79.168C122.733 78.4 123.672 78.016 124.781 78.016C125.891 78.016 126.829 78.4 127.597 79.168C128.365 79.936 128.749 80.8747 128.749 81.984C128.749 83.0507 128.365 83.9893 127.597 84.8C126.829 85.568 125.891 85.952 124.781 85.952Z" fill="black"/>
<path d="M81.264 120L80.368 114.496L84.848 113.6V82.048L80.496 81.6V75.776H96.496C99.5253 75.776 102.171 76.1173 104.432 76.8C106.693 77.4827 108.571 78.464 110.064 79.744C111.557 81.024 112.667 82.5813 113.392 84.416C114.16 86.208 114.544 88.2347 114.544 90.496C114.544 93.5253 113.861 96.192 112.496 98.496C111.173 100.757 109.147 102.528 106.416 103.808C103.728 105.088 100.336 105.728 96.24 105.728H93.232V113.216L102.96 114.688L102.576 120H81.264ZM93.232 99.008H93.808C97.136 98.9653 99.6533 98.6027 101.36 97.92C103.067 97.1947 104.219 96.192 104.816 94.912C105.456 93.5893 105.776 92.0533 105.776 90.304C105.776 87.9147 105.051 86.016 103.6 84.608C102.149 83.2 99.8666 82.496 96.752 82.496H93.232V99.008Z" fill="black"/>
<defs>
<linearGradient id="paint0_linear_57_99" x1="195.61" y1="97.8329" x2="0.056015" y2="97.8329" gradientUnits="userSpaceOnUse">
<stop stop-color="#F0F7FA"/>
<stop offset="1"/>
</linearGradient>
</defs>
</svg>
